<?xml version="1.0" encoding="UTF-8"?>
<svg width="300px" height="70px" viewBox="0 0 300 70" version="1.1" xmlns="http://www.w3.org/2000/svg" xmlns:xlink="http://www.w3.org/1999/xlink">
    <title>bg-wave</title>
    <g id="bg-wave" stroke="none" stroke-width="1" fill="none" fill-rule="evenodd">
        <path d="M161.907018,92 C257.400927,92 361.269244,71.679649 334.814035,68 C330.815922,67.4439034 362.336853,76.3405371 357.15033,75.151886 C341.162768,71.4878448 313.519073,45.837173 269.911499,44 C252.808594,43.2794601 231.666962,57.2463074 211.693848,57.2463074 C190.911934,57.2463074 178.592415,41.280816 161.907018,44 C137.362305,48 124.197021,49.9030304 93.1484472,42.0498272 C87.2960767,40.5695707 71.7253941,42.0483322 66.6864875,43.2794601 C39.9525956,49.811203 39.9525956,43.4496561 28.8613434,44 C0.134485741,45.4254163 -15.1725769,53.7043524 -15.1725769,59.5000153 C-15.1725769,72.7548493 66.4131086,92 161.907018,92 Z" id="Oval" fill="#EEF1F8"></path>
    </g>
</svg>
